<?xml version="1.0" encoding="UTF-8" standalone="no" ?>
<!DOCTYPE svg PUBLIC "-//W3C//DTD SVG 1.1//EN" "http://www.w3.org/Graphics/SVG/1.1/DTD/svg11.dtd">
<svg xmlns="http://www.w3.org/2000/svg" xmlns:xlink="http://www.w3.org/1999/xlink" version="1.1" width="270.1175" height="223.432" xml:space="preserve">
<desc>Created with Fabric.js 1.6.0-rc.1</desc>
<defs></defs>
  <g transform="translate(197.02 187.72)">
   <text font-family="Lovelo" font-size="40" font-weight="normal" style="stroke: none; stroke-width: 1; stroke-dasharray: none; stroke-linecap: butt; stroke-linejoin: miter; stroke-miterlimit: 10; fill: #632d14; fill-rule: nonzero; opacity: 1;" ><tspan x="-63.59" y="8.98" style="stroke: none; stroke-width: 0; stroke-dasharray: none; stroke-linecap: butt; stroke-linejoin: miter; stroke-miterlimit: 4; fill: #632d14; fill-rule: ; opacity: 1;">A</tspan><tspan x="-37.48" y="8.98" style="stroke: none; stroke-width: 0; stroke-dasharray: none; stroke-linecap: butt; stroke-linejoin: miter; stroke-miterlimit: 4; fill: #632d14; fill-rule: ; opacity: 1;">D</tspan><tspan x="-9.34" y="8.98" style="stroke: none; stroke-width: 0; stroke-dasharray: none; stroke-linecap: butt; stroke-linejoin: miter; stroke-miterlimit: 4; fill: #632d14; fill-rule: ; opacity: 1;">M</tspan><tspan x="23.3" y="8.98" style="stroke: none; stroke-width: 0; stroke-dasharray: none; stroke-linecap: butt; stroke-linejoin: miter; stroke-miterlimit: 4; fill: #632d14; fill-rule: ; opacity: 1;">I</tspan><tspan x="35.45" y="8.98" style="stroke: none; stroke-width: 0; stroke-dasharray: none; stroke-linecap: butt; stroke-linejoin: miter; stroke-miterlimit: 4; fill: #632d14; fill-rule: ; opacity: 1;">N</tspan></text>
 </g>
<g style="stroke: none; stroke-width: 1; stroke-dasharray: none; stroke-linecap: butt; stroke-linejoin: miter; stroke-miterlimit: 10; fill: none; fill-rule: nonzero; opacity: 1;" transform="translate(88.93 10) scale(0.26 0.26)" >
  <rect x="321.15" y="193.06" rx="0" ry="0" width="100.89" height="64" style="stroke: none; stroke-width: 1; stroke-dasharray: none; stroke-linecap: butt; stroke-linejoin: miter; stroke-miterlimit: 10; fill: #010803; fill-rule: nonzero; opacity: 1;" transform=" matrix(1 0 0 1 0 0) "/>
  <rect x="39.15" y="95.06" rx="0" ry="0" width="100.89" height="64" style="stroke: none; stroke-width: 1; stroke-dasharray: none; stroke-linecap: butt; stroke-linejoin: miter; stroke-miterlimit: 10; fill: #010803; fill-rule: nonzero; opacity: 1;" transform=" matrix(1 0 0 1 0 0) "/>
  <polygon points="226.89,299.54 234.95,360.88 150.27,360.88 158.34,299.54 " style="stroke: none; stroke-width: 1; stroke-dasharray: none; stroke-linecap: butt; stroke-linejoin: miter; stroke-miterlimit: 10; fill: #808080; fill-rule: nonzero; opacity: 1;" transform="  matrix(1 0 0 1 0 0) "/>
  <path d="M 454.41 150.295 v 13.56 H 288.78 v -13.56 c 0 -11.77 9.54 -21.31 21.31 -21.31 h 75.12 h 47.89 C 444.87 128.985 454.41 138.525 454.41 150.295 z" style="stroke: none; stroke-width: 1; stroke-dasharray: none; stroke-linecap: butt; stroke-linejoin: miter; stroke-miterlimit: 10; fill: #999999; fill-rule: nonzero; opacity: 1;" transform=" matrix(1 0 0 1 0 0) " stroke-linecap="round" />
  <path d="M 454.41 362.895 v 15.02 c 0 11.76 -9.54 21.3 -21.31 21.3 H 310.09 c -11.77 0 -21.31 -9.54 -21.31 -21.3 v -15.02 H 454.41 z" style="stroke: none; stroke-width: 1; stroke-dasharray: none; stroke-linecap: butt; stroke-linejoin: miter; stroke-miterlimit: 10; fill: #999999; fill-rule: nonzero; opacity: 1;" transform=" matrix(1 0 0 1 0 0) " stroke-linecap="round" />
  <path d="M 288.78 263.075 v 36.46 h -61.89 h -68.55 H 12.09 c -6.68 0 -12.09 -5.41 -12.09 -12.08 v -24.38 H 288.78 z" style="stroke: none; stroke-width: 1; stroke-dasharray: none; stroke-linecap: butt; stroke-linejoin: miter; stroke-miterlimit: 10; fill: #999999; fill-rule: nonzero; opacity: 1;" transform=" matrix(1 0 0 1 0 0) " stroke-linecap="round" />
  <path d="M 454.41 163.855 v 199.04 H 288.78 v -63.36 v -36.46 v -99.22 H 454.41 z M 422.04 257.065 v -64 H 321.15 v 64 H 422.04 z" style="stroke: none; stroke-width: 1; stroke-dasharray: none; stroke-linecap: butt; stroke-linejoin: miter; stroke-miterlimit: 10; fill: #EAE8DC; fill-rule: nonzero; opacity: 1;" transform=" matrix(1 0 0 1 0 0) " stroke-linecap="round" />
  <path d="M 385.21 67.285 v 61.7 h -75.12 c -11.77 0 -21.31 9.54 -21.31 21.31 v 13.56 v 99.22 H 0 V 67.285 c 0 -6.68 5.41 -12.09 12.09 -12.09 h 361.04 C 379.81 55.195 385.21 60.605 385.21 67.285 z M 140.04 159.065 v -64 H 39.15 v 64 H 140.04 z" style="stroke: none; stroke-width: 1; stroke-dasharray: none; stroke-linecap: butt; stroke-linejoin: miter; stroke-miterlimit: 10; fill: #EAE8DC; fill-rule: nonzero; opacity: 1;" transform=" matrix(1 0 0 1 0 0) " stroke-linecap="round" />
  <rect x="117.97" y="350.88" rx="0" ry="0" width="149.29" height="20" style="stroke: none; stroke-width: 1; stroke-dasharray: none; stroke-linecap: butt; stroke-linejoin: miter; stroke-miterlimit: 10; fill: #999999; fill-rule: nonzero; opacity: 1;" transform=" matrix(1 0 0 1 0 0) "/>
  <rect x="38.3" y="182.37" rx="0" ry="0" width="210" height="20" style="stroke: none; stroke-width: 1; stroke-dasharray: none; stroke-linecap: butt; stroke-linejoin: miter; stroke-miterlimit: 10; fill: #fc8c03; fill-rule: nonzero; opacity: 1;" transform=" matrix(1 0 0 1 0 0) "/>
  <rect x="38.3" y="218.37" rx="0" ry="0" width="210" height="20" style="stroke: none; stroke-width: 1; stroke-dasharray: none; stroke-linecap: butt; stroke-linejoin: miter; stroke-miterlimit: 10; fill: #fc8c03; fill-rule: nonzero; opacity: 1;" transform=" matrix(1 0 0 1 0 0) "/>
  <rect x="324.3" y="283.06" rx="0" ry="0" width="97.74" height="20" style="stroke: none; stroke-width: 1; stroke-dasharray: none; stroke-linecap: butt; stroke-linejoin: miter; stroke-miterlimit: 10; fill: #fc8c03; fill-rule: nonzero; opacity: 1;" transform=" matrix(1 0 0 1 0 0) "/>
  <rect x="324.3" y="319.06" rx="0" ry="0" width="97.74" height="20" style="stroke: none; stroke-width: 1; stroke-dasharray: none; stroke-linecap: butt; stroke-linejoin: miter; stroke-miterlimit: 10; fill: #fc8c03; fill-rule: nonzero; opacity: 1;" transform=" matrix(1 0 0 1 0 0) "/>
</g>
  <g transform="translate(94.59 145.72)">
   <text font-family="Lovelo" font-size="40" font-weight="bold" style="stroke: none; stroke-width: 1; stroke-dasharray: none; stroke-linecap: butt; stroke-linejoin: miter; stroke-miterlimit: 10; fill: #332d26; fill-rule: nonzero; opacity: 1;" ><tspan x="-84.09" y="8.98" style="stroke: none; stroke-width: 0; stroke-dasharray: none; stroke-linecap: butt; stroke-linejoin: miter; stroke-miterlimit: 4; fill: #332d26; fill-rule: ; opacity: 1;">S</tspan><tspan x="-62.94" y="8.98" style="stroke: none; stroke-width: 0; stroke-dasharray: none; stroke-linecap: butt; stroke-linejoin: miter; stroke-miterlimit: 4; fill: #332d26; fill-rule: ; opacity: 1;">T</tspan><tspan x="-41.06" y="8.98" style="stroke: none; stroke-width: 0; stroke-dasharray: none; stroke-linecap: butt; stroke-linejoin: miter; stroke-miterlimit: 4; fill: #332d26; fill-rule: ; opacity: 1;">U</tspan><tspan x="-14.23" y="8.98" style="stroke: none; stroke-width: 0; stroke-dasharray: none; stroke-linecap: butt; stroke-linejoin: miter; stroke-miterlimit: 4; fill: #332d26; fill-rule: ; opacity: 1;">D</tspan><tspan x="13.92" y="8.98" style="stroke: none; stroke-width: 0; stroke-dasharray: none; stroke-linecap: butt; stroke-linejoin: miter; stroke-miterlimit: 4; fill: #332d26; fill-rule: ; opacity: 1;">E</tspan><tspan x="34.07" y="8.98" style="stroke: none; stroke-width: 0; stroke-dasharray: none; stroke-linecap: butt; stroke-linejoin: miter; stroke-miterlimit: 4; fill: #332d26; fill-rule: ; opacity: 1;">N</tspan><tspan x="62.22" y="8.98" style="stroke: none; stroke-width: 0; stroke-dasharray: none; stroke-linecap: butt; stroke-linejoin: miter; stroke-miterlimit: 4; fill: #332d26; fill-rule: ; opacity: 1;">T</tspan></text>
 </g>
</svg>